# xmcd
#
# Track frame offsets: 
#        150
#        12476
#        25359
#        41366
#        52539
#        66767
#        81606
#        103128
#        119754
#        135964
#        149577
#
# Disc length: 2183 seconds
#
# Revision: 0
# Processed by: cddbd v1.5.2PL0 Copyright (c) Steve Scherf et al.
# Submitted via: ExactAudioCopyFreeDBPlugin 1.0
#
DISCID=9908850b
DTITLE=Becky Schlegel - Country Ballads
DYEAR=2008
DGENRE=Country
TTITLE0=End of the World
TTITLE1=Gentle on My Mind
TTITLE2=Satin Sheets
TTITLE3=Love is Like a Butterfly
TTITLE4=Sweet Dreams (of You)
TTITLE5=Nobody Wins
TTITLE6=Ponies
TTITLE7=Release Me (And Let Me Love Again)
TTITLE8=You Belong to Me
TTITLE9=Happy Anniversary
TTITLE10=Wildwood Flower
EXTD=
EXTT0=
EXTT1=
EXTT2=
EXTT3=
EXTT4=
EXTT5=
EXTT6=
EXTT7=
EXTT8=
EXTT9=
EXTT10=
PLAYORDER=
